/* XPM */
static const char * file_settings_xpm[] = {
"16 16 80 1",
" 	g None",
".	g #C7C7C7",
"+	g #C4C4C4",
"@	g #E5E5E5",
"#	g #E4E4E4",
"$	g #ACACAC",
"%	g #D1D1D1",
"&	g #CECECE",
"*	g #CACACA",
"=	g #C2C2C2",
"-	g #DEDEDE",
";	g #DDDDDD",
">	g #B2B2B2",
",	g #A7A7A7",
"'	g #A3A3A3",
")	g #DCDCDC",
"!	g #EDEDED",
"~	g #DBDBDB",
"{	g #BEBEBE",
"]	g #D6D6D6",
"^	g #D4D4D4",
"/	g #B0B0B0",
"(	g #CBCBCB",
"_	g #E7E7E7",
":	g #B7B7B7",
"<	g #D9D9D9",
"[	g #D2D2D2",
"}	g #C8C8C8",
"|	g #797979",
"1	g #C5C5C5",
"2	g #CCCCCC",
"3	g #C9C9C9",
"4	g #BABABA",
"5	g #9C9C9C",
"6	g #A1A1A1",
"7	g #C6C6C6",
"8	g #C1C1C1",
"9	g #898989",
"0	g #C0C0C0",
"a	g #D8D8D8",
"b	g #CDCDCD",
"c	g #BCBCBC",
"d	g #828282",
"e	g #8F8F8F",
"f	g #C3C3C3",
"g	g #8C8C8C",
"h	g #878787",
"i	g #838383",
"j	g #E9E9E9",
"k	g #A5A5A5",
"l	g #6B6B6B",
"m	g #BFBFBF",
"n	g #E2E2E2",
"o	g #B1B1B1",
"p	g #A8A8A8",
"q	g #616161",
"r	g #A0A0A0",
"s	g #CFCFCF",
"t	g #9E9E9E",
"u	g #B9B9B9",
"v	g #646464",
"w	g #585858",
"x	g #535353",
"y	g #AAAAAA",
"z	g #B5B5B5",
"A	g #696969",
"B	g #A6A6A6",
"C	g #D5D5D5",
"D	g #BDBDBD",
"E	g #6E6E6E",
"F	g #858585",
"G	g #6D6D6D",
"H	g #808080",
"I	g #818181",
"J	g #6F6F6F",
"K	g #626262",
"L	g #4E4E4E",
"M	g #494949",
"N	g #5B5B5B",
"O	g #515151",
"       .+       ",
"      .@#$      ",
"  %&* =-;> $,'  ",
"  )!~={]^/$(_:  ",
"  +)^<~]^<[(}|  ",
"  1^23456=78:9  ",
"}+0abcd  ef=bghi",
"+j]3&k    $+47;l",
"mn[7bo    p=:0[q",
"'ers72t  e8cuvwx",
"  $181.y,8{zyA  ",
"  BC1(%3.21D(E  ",
"  c-BiF+=GEB[H  ",
"  IJv i(.K wLM  ",
"      ID>N      ",
"       wO       "};
