/* XPM */
static const char * project_bench_xpm[] = {
"16 16 158 2",
"  	c None",
". 	c #F4B500",
"+ 	c #EFAE00",
"@ 	c #F4CB5B",
"# 	c #FAECBF",
"$ 	c #F1CB5C",
"% 	c #C9B24D",
"& 	c #74BCFA",
"* 	c #C8B251",
"= 	c #F2CF69",
"- 	c #F6D67C",
"; 	c #F1C95D",
"> 	c #F9E8B5",
", 	c #EBC761",
"' 	c #CCAA3A",
") 	c #88C4EC",
"! 	c #94CBE9",
"~ 	c #9DD0E7",
"{ 	c #8EC2DE",
"] 	c #D0AA32",
"^ 	c #F0D381",
"/ 	c #F3D073",
"( 	c #E9A700",
"_ 	c #F2D17C",
": 	c #E8C361",
"< 	c #C6A43A",
"[ 	c #92C7E2",
"} 	c #A9D1E6",
"| 	c #A6C2E0",
"1 	c #96AED5",
"2 	c #92ABD5",
"3 	c #A0BDDE",
"4 	c #A6CFE4",
"5 	c #9EC1BF",
"6 	c #D7B247",
"7 	c #F6E3AB",
"8 	c #E8B029",
"9 	c #D89A0A",
"0 	c #C59C2E",
"a 	c #8ABFDE",
"b 	c #A7C9E2",
"c 	c #AEBFDF",
"d 	c #DCE3F1",
"e 	c #ECF1F3",
"f 	c #EBF1F4",
"g 	c #D9E2F1",
"h 	c #A3BADC",
"i 	c #9EC3DF",
"j 	c #A9B18C",
"k 	c #D1A638",
"l 	c #D69A0E",
"m 	c #749DB3",
"n 	c #77ADD3",
"o 	c #9AC4DF",
"p 	c #AABDDE",
"q 	c #FFFFFF",
"r 	c #EEF0F0",
"s 	c #DAE5E7",
"t 	c #F7FFFF",
"u 	c #F3FEFF",
"v 	c #98B4DC",
"w 	c #96C0DB",
"x 	c #7EAAC2",
"y 	c #6A9FC6",
"z 	c #5B99CD",
"A 	c #75ACD3",
"B 	c #98B7D9",
"C 	c #D6E3F1",
"D 	c #F5FBFE",
"E 	c #F3F5F5",
"F 	c #959E9F",
"G 	c #E9F0F0",
"H 	c #F2F8F8",
"I 	c #ADB9BE",
"J 	c #C2DAF0",
"K 	c #87AAD2",
"L 	c #5490C2",
"M 	c #71A6CE",
"N 	c #89A5D1",
"O 	c #E9F6FA",
"P 	c #EEF8FD",
"Q 	c #F9FFFF",
"R 	c #798081",
"S 	c #A4AEB1",
"T 	c #777F81",
"U 	c #BAC6C9",
"V 	c #D3F0FA",
"W 	c #7296C9",
"X 	c #4E87B7",
"Y 	c #669CC9",
"Z 	c #809FCF",
"` 	c #E2F3FA",
" .	c #E9F6FD",
"..	c #E3F0F2",
"+.	c #848C8D",
"@.	c #C2CFD2",
"#.	c #EBFBFF",
"$.	c #CCECFA",
"%.	c #6D90C7",
"&.	c #487EAC",
"*.	c #588FBF",
"=.	c #81A3CD",
"-.	c #C1DBF0",
";.	c #E6F7FF",
">.	c #E3F2FA",
",.	c #B6C0C5",
"'.	c #DEEDF1",
").	c #E8FCFF",
"!.	c #DFF5FF",
"~.	c #AFD4EF",
"{.	c #7299C8",
"].	c #4175A1",
"^.	c #4A80B0",
"/.	c #6F9BC6",
"(.	c #88AAD9",
"_.	c #EBFEFF",
":.	c #EEFAFF",
"<.	c #F2FDFF",
"[.	c #F2FEFF",
"}.	c #EFFCFF",
"|.	c #EBFDFF",
"1.	c #7AA3D9",
"2.	c #6C99C2",
"3.	c #3B6D96",
"4.	c #467DB3",
"5.	c #7199C2",
"6.	c #89AAD8",
"7.	c #CFDFEF",
"8.	c #F3F6FA",
"9.	c #F3F5FA",
"0.	c #D1DFEF",
"a.	c #85A7D7",
"b.	c #6C94BE",
"c.	c #6988A3",
"d.	c #4478AF",
"e.	c #5E8CBB",
"f.	c #7193C2",
"g.	c #7491C4",
"h.	c #718FC3",
"i.	c #6C90BF",
"j.	c #5D8AB8",
"k.	c #5986B4",
"l.	c #6485A1",
"m.	c #D3D3D3",
"n.	c #BDBFC2",
"o.	c #3B6B9C",
"p.	c #356CA6",
"q.	c #376FAE",
"r.	c #4A76A1",
"s.	c #C3C4C5",
"t.	c #C5C6C6",
"u.	c #B4B4B4",
"v.	c #DBDBDB",
"w.	c #B2B3B3",
"x.	c #2F5A7C",
"y.	c #2C587B",
"z.	c #D9D9D9",
"A.	c #A2A2A2",
"    . . .             . .       ",
"  + @ # $ % & & & & * = - +     ",
"  ; > , ' ) ! ~ ~ ! { ] ^ / (   ",
"  _ : < [ } | 1 2 3 4 5 6 7 8   ",
"  9 0 a b c d e f g h i j k l   ",
"  m n o p q r s t t u v w x y   ",
"  z A B C D E F G H I J K A z   ",
"  L M N O P Q R S T U V W M L   ",
"  X Y Z `  ...+.T @.#.$.%.Y X   ",
"  &.*.=.-.;.>.,.'.).!.~.{.*.&.  ",
"  ].^./.(._.:.<.[.}.|.1.2.^.].  ",
"    3.4.5.6.7.8.9.0.a.b.4.3.    ",
"      c.d.e.f.g.h.i.j.k.l.      ",
"      m.n.o.p.q.q.p.r.s.t.      ",
"    u.v.w.x.y.y.y.y.y.w.z.u.    ",
"    A.A.                A.A.    "};
