/* XPM */
static const char * project_build_xpm[] = {
"16 16 99 2",
"  	c None",
". 	c #ECCE40",
"+ 	c #EBCC3F",
"@ 	c #EACB3E",
"# 	c #E9C93C",
"$ 	c #E9C73B",
"% 	c #E8C43A",
"& 	c #E7C238",
"* 	c #E6C036",
"= 	c #E5BD35",
"- 	c #E4BB33",
"; 	c #E3B831",
"> 	c #FAED9A",
", 	c #F9EB99",
"' 	c #F9E897",
") 	c #F8E594",
"! 	c #F7E291",
"~ 	c #F6DF8E",
"{ 	c #F5DB8B",
"] 	c #EBC756",
"^ 	c #F1D964",
"/ 	c #FAEB9A",
"( 	c #F4D848",
"_ 	c #F3D344",
": 	c #F1CE3F",
"< 	c #F0C83A",
"[ 	c #F5DC8C",
"} 	c #EDCB62",
"| 	c #EACA3D",
"1 	c #F9E993",
"2 	c #F7E172",
"3 	c #F3D445",
"4 	c #F2CE41",
"5 	c #F0C93C",
"6 	c #F5DC8A",
"7 	c #EFD070",
"8 	c #E4BB3D",
"9 	c #EFD45B",
"0 	c #F9EA99",
"a 	c #F4D647",
"b 	c #F2D042",
"c 	c #F0CB3D",
"d 	c #F3D56E",
"e 	c #F3D77F",
"f 	c #E7C04A",
"g 	c #F5E180",
"h 	c #F8E68E",
"i 	c #F3D243",
"j 	c #F1CD3F",
"k 	c #EFC739",
"l 	c #EAC658",
"m 	c #ECCD4F",
"n 	c #F9E998",
"o 	c #F3D54A",
"p 	c #F1CF45",
"q 	c #F0CA40",
"r 	c #EEC238",
"s 	c #F4D989",
"t 	c #E1B42E",
"u 	c #E0B12C",
"v 	c #DFAE2B",
"w 	c #DEAC29",
"x 	c #DCA927",
"y 	c #DBA625",
"z 	c #DAA323",
"A 	c #F2DA75",
"B 	c #F8E693",
"C 	c #F7E391",
"D 	c #F6E08D",
"E 	c #F5DB8A",
"F 	c #F4D788",
"G 	c #F2D384",
"H 	c #F1CF7F",
"I 	c #F0CC7C",
"J 	c #EFC97A",
"K 	c #E3B448",
"L 	c #E2B62F",
"M 	c #F3D786",
"N 	c #EBB62F",
"O 	c #ECBC4A",
"P 	c #F1CE80",
"Q 	c #E6B951",
"R 	c #DDA82C",
"S 	c #DAA223",
"T 	c #E0B22D",
"U 	c #EECC70",
"V 	c #F2D283",
"W 	c #F1CE7E",
"X 	c #E4B64A",
"Y 	c #DBA524",
"Z 	c #DFAF2B",
"` 	c #E7BD55",
" .	c #DEAA2E",
"..	c #DBA424",
"+.	c #E7BC4F",
"@.	c #E6BA4C",
"#.	c #DCA726",
"$.	c #DFAE2D",
"%.	c #DEAB2B",
"                                ",
"      . + @ # $ % & * = - ;     ",
"      + > , ' ) ! ~ { ] ;       ",
"    + ^ / ( _ : < [ } ;         ",
"    | 1 2 3 4 5 6 7 8           ",
"    9 0 a b c d e f             ",
"  $ g h i j k [ l               ",
"  m n o p q r s t u v w x y z   ",
"% A B C D 6 E F G H I J K z     ",
"& * = - ; L M N O P Q R S       ",
"          T U V W X Y           ",
"          Z G `  ...            ",
"        Z +.@.#.                ",
"        $.%.y                   ",
"      w x                       ",
"                                "};
