<?xml version="1.0" encoding="UTF-8" standalone="no"?>
<!-- Created with Inkscape (http://www.inkscape.org/) -->

<svg
   xmlns:dc="http://purl.org/dc/elements/1.1/"
   xmlns:cc="http://creativecommons.org/ns#"
   xmlns:rdf="http://www.w3.org/1999/02/22-rdf-syntax-ns#"
   xmlns:svg="http://www.w3.org/2000/svg"
   xmlns="http://www.w3.org/2000/svg"
   xmlns:sodipodi="http://sodipodi.sourceforge.net/DTD/sodipodi-0.dtd"
   xmlns:inkscape="http://www.inkscape.org/namespaces/inkscape"
   width="382"
   height="131"
   viewBox="0 0 382 131"
   id="svg2"
   version="1.1"
   inkscape:version="0.91 r13725"
   sodipodi:docname="text.svg">
  <defs
     id="defs4" />
  <sodipodi:namedview
     id="base"
     pagecolor="#ffffff"
     bordercolor="#666666"
     borderopacity="1.0"
     inkscape:pageopacity="0.0"
     inkscape:pageshadow="2"
     inkscape:zoom="1.979899"
     inkscape:cx="276.05684"
     inkscape:cy="131.55945"
     inkscape:document-units="px"
     inkscape:current-layer="text3357"
     showgrid="false"
     inkscape:window-width="1920"
     inkscape:window-height="1147"
     inkscape:window-x="1272"
     inkscape:window-y="352"
     inkscape:window-maximized="1"
     units="px" />
  <metadata
     id="metadata7">
    <rdf:RDF>
      <cc:Work
         rdf:about="">
        <dc:format>image/svg+xml</dc:format>
        <dc:type
           rdf:resource="http://purl.org/dc/dcmitype/StillImage" />
        <dc:title></dc:title>
      </cc:Work>
    </rdf:RDF>
  </metadata>
  <g
     inkscape:label="Layer 1"
     inkscape:groupmode="layer"
     id="layer1"
     style="display:inline"
     transform="translate(0,-921.36216)">
    <g
       id="g3347"
       transform="translate(0,197.14286)" />
    <g
       style="font-style:normal;font-variant:normal;font-weight:normal;font-stretch:normal;font-size:40px;line-height:125%;font-family:consolas;-inkscape-font-specification:consolas;letter-spacing:0px;word-spacing:0px;fill:#000000;fill-opacity:1;stroke:none;stroke-width:1px;stroke-linecap:butt;stroke-linejoin:miter;stroke-opacity:1"
       id="text3357"
       transform="matrix(4.3595799,0,0,4.3595799,-10.789282,-5.6207256)">
      <path
         d="m 5.1945848,221.40269 3.2241425,0 0.1013922,3.85805 q 1.8047085,-2.2314 3.5485855,-3.23242 1.764153,-1.00101 3.548586,-1.00101 3.16331,0 4.785521,2.10629 1.642486,2.10628 1.520822,6.25628 l -3.568864,0 q 0.06083,-2.75277 -0.790828,-3.98318 -0.831381,-1.25126 -2.453592,-1.25126 -0.709717,0 -1.439712,0.27111 -0.709716,0.25026 -1.480267,0.83419 -0.750272,0.56305 -1.601933,1.4598 -0.8516608,0.89673 -1.824987,2.16885 l 0,13.45099 -3.5688624,0 0,-20.93769 z"
         id="path3362"
         inkscape:connector-curvature="0" />
      <path
         d="m 34.171316,224.4057 -6.022456,0 0,-3.00301 9.591318,0 0,17.91381 6.063011,0 0,3.02388 -16.323491,0 0,-3.02388 6.691618,0 0,-14.9108 z m 1.236934,-11.78266 q 0.588051,0 1.094992,0.2294 0.506942,0.20854 0.871938,0.60477 0.385275,0.39623 0.588052,0.9176 0.223053,0.50049 0.223053,1.10527 0,0.58391 -0.223053,1.10527 -0.202777,0.52136 -0.588052,0.91759 -0.364996,0.39623 -0.871938,0.62562 -0.506941,0.20855 -1.094992,0.20855 -0.58805,0 -1.09499,-0.20855 -0.506942,-0.22939 -0.892216,-0.62562 -0.364998,-0.39623 -0.588052,-0.91759 -0.202776,-0.52136 -0.202776,-1.10527 0,-0.60478 0.202776,-1.10527 0.223054,-0.52137 0.588052,-0.9176 0.385274,-0.39623 0.892216,-0.60477 0.50694,-0.2294 1.09499,-0.2294 z"
         id="path3364"
         inkscape:connector-curvature="0" />
      <path
         d="m 49.075372,232.30947 q 0,-2.66934 0.709715,-4.73392 0.709719,-2.08543 2.007487,-3.50351 1.318044,-1.43896 3.143031,-2.16885 1.845265,-0.75076 4.096081,-0.75076 0.973328,0 1.906099,0.12513 0.953047,0.12513 1.865539,0.39624 l 0,-8.8005 3.548588,0 0,29.46708 -3.163311,0 -0.121667,-3.96231 q -1.480267,2.21055 -3.203864,3.27413 -1.7236,1.06357 -3.731085,1.06357 -1.743875,0 -3.082197,-0.75076 -1.318049,-0.75075 -2.210263,-2.10629 -0.871938,-1.37638 -1.318047,-3.29497 -0.446106,-1.9186 -0.446106,-4.25428 z m 3.609417,-0.2294 q 0,3.79549 1.074714,5.67236 1.094992,1.85605 3.0822,1.85605 1.338323,0 2.81859,-1.23041 1.500544,-1.23041 3.143031,-3.64949 l 0,-9.71809 q -0.871936,-0.41709 -1.926374,-0.62564 -1.054436,-0.22941 -2.088596,-0.22941 -2.879421,0 -4.501631,1.9186 -1.601934,1.9186 -1.601934,6.00603 z"
         id="path3366"
         inkscape:connector-curvature="0" />
      <path
         d="m 90.178121,230.76627 q 0,0.77161 -0.02026,1.29296 -0.02026,0.52136 -0.06083,0.98016 l -14.295728,0 q 0,3.21154 1.743879,4.94244 1.743874,1.71007 5.02885,1.71007 0.892215,0 1.78443,-0.0626 0.892218,-0.0835 1.723598,-0.20858 0.831385,-0.12511 1.581656,-0.27109 0.770551,-0.16682 1.419433,-0.35452 l 0,2.98217 q -1.439711,0.41707 -3.264696,0.66734 -1.80471,0.2711 -3.751361,0.2711 -2.615815,0 -4.501634,-0.7299 -1.885819,-0.7299 -3.102476,-2.1063 -1.196381,-1.39723 -1.784432,-3.39924 -0.567774,-2.02285 -0.567774,-4.56709 0,-2.21055 0.608329,-4.17086 0.628606,-1.98114 1.804709,-3.46178 1.196381,-1.50151 2.919978,-2.37741 1.723599,-0.87588 3.913582,-0.87588 2.129152,0 3.771639,0.68819 1.642488,0.68819 2.757756,1.9603 1.13555,1.25126 1.703322,3.06559 0.58805,1.79346 0.58805,4.02489 z m -3.67025,-0.52137 q 0.06083,-1.39722 -0.263609,-2.54422 -0.324442,-1.16783 -1.013881,-2.002 -0.669163,-0.83418 -1.683043,-1.29298 -1.013881,-0.47965 -2.352203,-0.47965 -1.155828,0 -2.108875,0.4588 -0.953049,0.4588 -1.642488,1.29298 -0.689439,0.83417 -1.115268,2.00199 -0.425832,1.16786 -0.527221,2.56508 l 10.706588,0 z"
         id="path3368"
         inkscape:connector-curvature="0" />
    </g>
  </g>
</svg>
