/* XPM */
static const char * project_debug_xpm[] = {
"16 16 130 2",
"  	c None",
". 	c #3FB73A",
"+ 	c #3CAC36",
"@ 	c #3EB238",
"# 	c #3DAF37",
"$ 	c #3AA634",
"% 	c #40B73A",
"& 	c #3CAD37",
"* 	c #3BAA36",
"= 	c #667F46",
"- 	c #50863A",
"; 	c #3A9D33",
"> 	c #58713B",
", 	c #3EB338",
"' 	c #3DB138",
") 	c #3DAC38",
"! 	c #3AA835",
"~ 	c #39A534",
"{ 	c #39A134",
"] 	c #7EC272",
"^ 	c #C2E3AF",
"/ 	c #788C5F",
"( 	c #3CAB36",
"_ 	c #3EA938",
": 	c #4BAC45",
"< 	c #ADD49E",
"[ 	c #B8D7A4",
"} 	c #8EC385",
"| 	c #2D8F28",
"1 	c #5FB74F",
"2 	c #AAC897",
"3 	c #318D2C",
"4 	c #30892B",
"5 	c #2E852A",
"6 	c #3EB138",
"7 	c #3FA539",
"8 	c #A8CE90",
"9 	c #84B962",
"0 	c #7BB258",
"a 	c #76B260",
"b 	c #3E9738",
"c 	c #2D8929",
"d 	c #62A457",
"e 	c #445026",
"f 	c #3AA735",
"g 	c #3EA538",
"h 	c #56AD50",
"i 	c #A5CC8D",
"j 	c #80B55E",
"k 	c #73AD4F",
"l 	c #5DA342",
"m 	c #59AA51",
"n 	c #A9CB9A",
"o 	c #95BF8E",
"p 	c #2E8329",
"q 	c #3B5925",
"r 	c #39A434",
"s 	c #38A133",
"t 	c #389E33",
"u 	c #ACCF94",
"v 	c #7EB45C",
"w 	c #72AC4E",
"x 	c #5DA141",
"y 	c #57A64E",
"z 	c #98C185",
"A 	c #73A857",
"B 	c #99BE86",
"C 	c #2D7E2A",
"D 	c #2A7926",
"E 	c #389C33",
"F 	c #59A952",
"G 	c #8CBC6D",
"H 	c #70AA4D",
"I 	c #5C9F42",
"J 	c #54A24C",
"K 	c #96BF83",
"L 	c #6DA351",
"M 	c #639D47",
"N 	c #99BE89",
"O 	c #2A7726",
"P 	c #287324",
"Q 	c #277023",
"R 	c #266C22",
"S 	c #379532",
"T 	c #68AD62",
"U 	c #91BE77",
"V 	c #5DA044",
"W 	c #539F4B",
"X 	c #8CB478",
"Y 	c #6AA24E",
"Z 	c #629C47",
"` 	c #85B171",
" .	c #6FA06A",
"..	c #277124",
"+.	c #3A9235",
"@.	c #328C2D",
"#.	c #82B577",
"$.	c #549E4D",
"%.	c #8CB379",
"&.	c #6AA14D",
"*.	c #609A46",
"=.	c #84B071",
"-.	c #397D36",
";.	c #266E23",
">.	c #33872F",
",.	c #237420",
"'.	c #9DC094",
").	c #82AF6C",
"!.	c #679E4D",
"~.	c #84B070",
"{.	c #7AA675",
"].	c #256B22",
"^.	c #246821",
"/.	c #236520",
"(.	c #2E7B2A",
"_.	c #2E792A",
":.	c #6FA168",
"<.	c #73A26B",
"[.	c #2E712A",
"}.	c #215F1E",
"|.	c #205C1D",
"1.	c #2B7326",
"2.	c #276D22",
"3.	c #246921",
"4.	c #236620",
"5.	c #22631F",
"6.	c #22611F",
"7.	c #215E1E",
"8.	c #1F591C",
"9.	c #1E571C",
"              .       +         ",
"              @ #     $         ",
"      %       & * = - ; >       ",
"      , '   ) ! ~ { ] ^ /       ",
"        ( _ : < [ } | 1 2 3 4 5 ",
"6       $ 7 8 9 0 a b c d e     ",
"& * f g h i j k l m n o p q     ",
"  r s t u v w x y z A B C D     ",
"    E F G H I J K L M N O P Q R ",
"    S T U V W X Y Z `  ...      ",
"    +.@.#.$.%.&.*.=.-.;.        ",
"      >.,.'.).!.~.{.].^./.      ",
"        (._.:.<.[.^.    }.|.    ",
"          1.2.3.4.5.            ",
"                6.7.            ",
"                  8.9.          "};
