/* XPM */
static const char * project_clean_xpm[] = {
"16 16 98 2",
"  	g None",
". 	g #CCCCCC",
"+ 	g #727272",
"@ 	g #979797",
"# 	g #E8E8E8",
"$ 	g #F1F1F1",
"% 	g #CFCFCF",
"& 	g #737373",
"* 	g #BABABA",
"= 	g #D8D8D8",
"- 	g #F4F4F4",
"; 	g #FDFDFD",
"> 	g #EAEAEA",
", 	g #BCBCBC",
"' 	g #6B6B6B",
") 	g #757575",
"! 	g #C4C4C4",
"~ 	g #DFDFDF",
"{ 	g #EBEBEB",
"] 	g #F6F6F6",
"^ 	g #F0F0F0",
"/ 	g #E9E9E9",
"( 	g #ABABAB",
"_ 	g #6C6C6C",
": 	g #A1A1A1",
"< 	g #EFEFEF",
"[ 	g #E6E6E6",
"} 	g #EDEDED",
"| 	g #EEEEEE",
"1 	g #F9F9F9",
"2 	g #DDDDDD",
"3 	g #DEDEDE",
"4 	g #898989",
"5 	g #B0B0B0",
"6 	g #CBCBCB",
"7 	g #A6A6A6",
"8 	g #ACACAC",
"9 	g #A8A8A8",
"0 	g #A4A4A4",
"a 	g #B9B9B9",
"b 	g #C7C7C7",
"c 	g #BEBEBE",
"d 	g #BFBFBF",
"e 	g #BBBBBB",
"f 	g #C2C2C2",
"g 	g #C6C6C6",
"h 	g #848484",
"i 	g #D7D7D7",
"j 	g #F3F3F3",
"k 	g #E3E3E3",
"l 	g #B6B6B6",
"m 	g #A9A9A9",
"n 	g #CDCDCD",
"o 	g #CACACA",
"p 	g #7E7E7E",
"q 	g #C1C1C1",
"r 	g #E5E5E5",
"s 	g #D0D0D0",
"t 	g #9D9D9D",
"u 	g #B5B5B5",
"v 	g #797979",
"w 	g #A5A5A5",
"x 	g #E2E2E2",
"y 	g #DCDCDC",
"z 	g #868686",
"A 	g #D3D3D3",
"B 	g #B4B4B4",
"C 	g #747474",
"D 	g #A0A0A0",
"E 	g #D5D5D5",
"F 	g #DADADA",
"G 	g #F5F5F5",
"H 	g #787878",
"I 	g #919191",
"J 	g #B1B1B1",
"K 	g #6F6F6F",
"L 	g #9A9A9A",
"M 	g #DBDBDB",
"N 	g #B7B7B7",
"O 	g #717171",
"P 	g #D1D1D1",
"Q 	g #8C8C8C",
"R 	g #AFAFAF",
"S 	g #6E6E6E",
"T 	g #C9C9C9",
"U 	g #8F8F8F",
"V 	g #666666",
"W 	g #888888",
"X 	g #E4E4E4",
"Y 	g #929292",
"Z 	g #D4D4D4",
"` 	g #626262",
" .	g #7C7C7C",
"..	g #A7A7A7",
"+.	g #707070",
"@.	g #686868",
"#.	g #656565",
"$.	g #646464",
"                    .           ",
"              + @ # $ % &       ",
"            + * = - ; > , '     ",
"          ) ! ~ { # ] ^ / ( _   ",
"          : < ^ [ } | 1 2 3 4   ",
"          5 6 < < } < < < 7 4   ",
"    8 9 0 : a b c d e f * g h   ",
"  ( i | j k l m . n o g l l p   ",
"  q < r { $ | l m = 6 s t u v   ",
"w x y = 2 r < / z i n A @ B C   ",
"D [ d s E F r G H g n A I J K   ",
"L M # N m . F G O d 6 P Q R '   ",
"  u - r M F F ^ S % T s U a V   ",
"  W u j / k X l Y r X 3 Z D `   ",
"     ...F = A V + +._ @.#.`     ",
"        _ @.$.                  "};
