/* XPM */
static char * create_library_xpm[] = {
"16 16 176 2",
"  	c None",
". 	c #D8B24B",
"+ 	c #D7B04A",
"@ 	c #D8B44D",
"# 	c #D7B24B",
"$ 	c #EAD59C",
"% 	c #E7CC88",
"& 	c #D5AC45",
"* 	c #D4AA44",
"= 	c #D8B44C",
"- 	c #E5CF92",
"; 	c #FCF8E6",
"> 	c #FEF6E3",
", 	c #F2DDAF",
"' 	c #F7E4B2",
") 	c #E1C072",
"! 	c #D1A43F",
"~ 	c #D9B54E",
"{ 	c #E0C67E",
"] 	c #F7EED1",
"^ 	c #FFFFF6",
"/ 	c #FFFEF0",
"( 	c #FBEDCB",
"_ 	c #DAAD50",
": 	c #F7D78B",
"< 	c #F9E1AA",
"[ 	c #F2D695",
"} 	c #DBB262",
"| 	c #CE9D39",
"1 	c #D9B74F",
"2 	c #D9B54D",
"3 	c #EDD9A5",
"4 	c #F5EBD2",
"5 	c #EDDEBE",
"6 	c #DEC995",
"7 	c #DBC389",
"8 	c #D6B870",
"9 	c #DDB969",
"0 	c #F5D790",
"a 	c #F5CF7F",
"b 	c #F8DB9D",
"c 	c #FAE3AA",
"d 	c #ECCA84",
"e 	c #D5A651",
"f 	c #CB9532",
"g 	c #FEF8E1",
"h 	c #F9EBCD",
"i 	c #EDD292",
"j 	c #EBCC84",
"k 	c #E5BF6F",
"l 	c #DBB156",
"m 	c #C8943B",
"n 	c #FAECCE",
"o 	c #FFF5D9",
"p 	c #FFEAB9",
"q 	c #FEDF95",
"r 	c #FFD577",
"s 	c #FFE4A5",
"t 	c #FBDC84",
"u 	c #C9922F",
"v 	c #FDF8E2",
"w 	c #FFF3D4",
"x 	c #FAE4B0",
"y 	c #F1CF86",
"z 	c #F5D07F",
"A 	c #F5D078",
"B 	c #E4B14C",
"C 	c #FFE9B6",
"D 	c #FFE19B",
"E 	c #FED678",
"F 	c #F5BD40",
"G 	c #E9B53D",
"H 	c #F1D590",
"I 	c #C88F2D",
"J 	c #D6B049",
"K 	c #FDF6E2",
"L 	c #FFF4DA",
"M 	c #FFF3D5",
"N 	c #FFEBBD",
"O 	c #F7D589",
"P 	c #F5C969",
"Q 	c #E9B44C",
"R 	c #FBDA8D",
"S 	c #FFDC8C",
"T 	c #F9C448",
"U 	c #ECB638",
"V 	c #E8BF48",
"W 	c #E8BB4F",
"X 	c #F0D08C",
"Y 	c #C78D2B",
"Z 	c #D5AD47",
"` 	c #FCF6E2",
" .	c #FFF4D7",
"..	c #FFF2CE",
"+.	c #FFEFC8",
"@.	c #FFEBBA",
"#.	c #FBDB92",
"$.	c #F1C156",
"%.	c #F9C248",
"&.	c #F0BD3B",
"*.	c #ECC547",
"=.	c #E9BD45",
"-.	c #E6B542",
";.	c #E6B147",
">.	c #EECA88",
",.	c #C68A28",
"'.	c #FFF0C9",
").	c #FFEDBE",
"!.	c #FFEAB3",
"~.	c #FFE7AD",
"{.	c #FED97C",
"].	c #EFC748",
"^.	c #EAC443",
"/.	c #E8BE43",
"(.	c #E6B53F",
"_.	c #E3AB3A",
":.	c #E1A740",
"<.	c #ECC583",
"[.	c #C58726",
"}.	c #D3A842",
"|.	c #FEFBE7",
"1.	c #FFF6DD",
"2.	c #FFEFC1",
"3.	c #FFEBB7",
"4.	c #FFE8AB",
"5.	c #FFE4A4",
"6.	c #FEE196",
"7.	c #EBC648",
"8.	c #E9BD40",
"9.	c #E6B43D",
"0.	c #E2A938",
"a.	c #DE9F32",
"b.	c #E6B66B",
"c.	c #EEC483",
"d.	c #C48524",
"e.	c #D2A540",
"f.	c #DCBD77",
"g.	c #F6E5BF",
"h.	c #FFF6DB",
"i.	c #FFEEC1",
"j.	c #FFE5A5",
"k.	c #FFE39F",
"l.	c #FEE194",
"m.	c #EAC146",
"n.	c #E6B53A",
"o.	c #E2AA37",
"p.	c #E5AF56",
"q.	c #EDC687",
"r.	c #E4B374",
"s.	c #CA904A",
"t.	c #C38322",
"u.	c #E0C07D",
"v.	c #FCEEC7",
"w.	c #FFF2CC",
"x.	c #FFE8A8",
"y.	c #FEE094",
"z.	c #E7BA41",
"A.	c #E4B145",
"B.	c #EFCA8A",
"C.	c #EBC182",
"D.	c #D09753",
"E.	c #C38423",
"F.	c #CC9834",
"G.	c #E5C482",
"H.	c #FFF4CC",
"I.	c #FFEFC4",
"J.	c #F1D28B",
"K.	c #F0CE8A",
"L.	c #D7A45F",
"M.	c #C48625",
"N.	c #C9902E",
"O.	c #C88E2C",
"P.	c #EBCD8F",
"Q.	c #E2B76F",
"R.	c #C88E40",
"S.	c #C58928",
"              . +               ",
"          @ # $ % & *           ",
"        = - ; > , ' ) !         ",
"    ~ { ] ^ / ( _ : < [ } |     ",
"1 2 3 4 5 6 7 8 9 0 a b c d e f ",
"@ g h i j k l m n o p q r s t u ",
"# v w x y z A B x C D E F G H I ",
"J K L M N O P Q R S T U V W X Y ",
"Z `  ...+.@.#.$.%.&.*.=.-.;.>.,.",
"* ` w '.).!.~.{.].^./.(._.:.<.[.",
"}.|.1.2.3.4.5.6.7.8.9.0.a.b.c.d.",
"e.f.g.h.i.j.k.l.m.n.o.p.q.r.s.t.",
"    | u.v.w.x.y.z.A.B.C.D.E.    ",
"      F.f G.H.I.J.K.L.M.E.      ",
"          N.O.P.Q.R.d.          ",
"              S.[.              "};
