/* XPM */
static const char * edit_redo_xpm[] = {
"16 16 110 2",
"  	c None",
". 	c #58A34F",
"+ 	c #549F4B",
"@ 	c #68B85D",
"# 	c #65B45A",
"$ 	c #62B057",
"% 	c #5EAC54",
"& 	c #5BA751",
"* 	c #57A34E",
"= 	c #71B369",
"- 	c #6FAF66",
"; 	c #4C9444",
"> 	c #6ABB5F",
", 	c #85C57B",
"' 	c #96CE8D",
") 	c #A1D398",
"! 	c #A5D59C",
"~ 	c #A2D499",
"{ 	c #9FD297",
"] 	c #9DD094",
"^ 	c #99CF91",
"/ 	c #94CC8D",
"( 	c #67A85F",
"_ 	c #438A3C",
": 	c #6ABA5F",
"< 	c #92CC88",
"[ 	c #A9D7A0",
"} 	c #A0D396",
"| 	c #A3D49B",
"1 	c #A1D399",
"2 	c #9ED196",
"3 	c #9BCF93",
"4 	c #99CE90",
"5 	c #95CC8D",
"6 	c #91CA8A",
"7 	c #62A35B",
"8 	c #3F8538",
"9 	c #84C57A",
"0 	c #A7D69E",
"a 	c #9ACF92",
"b 	c #76B86D",
"c 	c #55A04C",
"d 	c #519C49",
"e 	c #4E9746",
"f 	c #4A9242",
"g 	c #64A65D",
"h 	c #61A35A",
"i 	c #3E8438",
"j 	c #66B55B",
"k 	c #93CC8A",
"l 	c #9DD193",
"m 	c #9ACE91",
"n 	c #58A44F",
"o 	c #41883B",
"p 	c #3E8337",
"q 	c #62B158",
"r 	c #9CD194",
"s 	c #9ED195",
"t 	c #7FBC76",
"u 	c #98CE90",
"v 	c #7AB972",
"w 	c #509947",
"x 	c #5AA651",
"y 	c #87C27F",
"z 	c #90CA87",
"A 	c #8CC685",
"B 	c #4B9443",
"C 	c #478F40",
"D 	c #70B268",
"E 	c #93CB8B",
"F 	c #90CA89",
"G 	c #85C17E",
"H 	c #60A259",
"I 	c #3B8035",
"J 	c #387B32",
"K 	c #34772F",
"L 	c #31732C",
"M 	c #2D6E29",
"N 	c #2A6B26",
"O 	c #76B56E",
"P 	c #8BC785",
"Q 	c #7FC178",
"R 	c #86C47F",
"S 	c #82C27C",
"T 	c #80C179",
"U 	c #7EBF77",
"V 	c #7ABD74",
"W 	c #78BD72",
"X 	c #75BB70",
"Y 	c #276623",
"Z 	c #458D3E",
"` 	c #60A35A",
" .	c #70B16A",
"..	c #7CBC75",
"+.	c #7DBF78",
"@.	c #7CBE76",
"#.	c #79BD74",
"$.	c #77BC71",
"%.	c #74BB70",
"&.	c #73B96D",
"*.	c #246220",
"=.	c #397E33",
"-.	c #367930",
";.	c #32752D",
">.	c #2F702A",
",.	c #2C6C27",
"'.	c #296925",
").	c #266522",
"!.	c #236220",
"~.	c #215F1E",
"                                ",
"                                ",
"                      . +       ",
"          @ # $ % & * = - ;     ",
"      > , ' ) ! ~ { ] ^ / ( _   ",
"    : < [ } | 1 2 3 4 5 6 7 8   ",
"    9 0 ! a b c d e f g h i     ",
"  j k l m n c         o p       ",
"  q r s t +                     ",
"  % u ^ v w                     ",
"  x y z A B C                   ",
"    D E F G H 8 I J K L M N     ",
"    e O P Q R S T U V W X Y     ",
"      Z `  ...+.@.#.$.%.&.*.    ",
"          =.-.;.>.,.'.).!.~.    ",
"                                "};
