/* XPM */
static const char * edit_undo_xpm[] = {
"16 16 111 2",
"  	c None",
". 	c #72C466",
"+ 	c #70C264",
"@ 	c #6EBF62",
"# 	c #6BBC60",
"$ 	c #68B85D",
"% 	c #65B55B",
"& 	c #62B158",
"* 	c #5FAC55",
"= 	c #5BA852",
"- 	c #70C164",
"; 	c #B0DBA6",
"> 	c #AFDAA6",
", 	c #ADD9A3",
"' 	c #ABD8A2",
") 	c #A8D79F",
"! 	c #A5D59C",
"~ 	c #9DD094",
"{ 	c #8CC583",
"] 	c #74B46C",
"^ 	c #509947",
"/ 	c #6DBE62",
"( 	c #AEDAA5",
"_ 	c #ACD8A2",
": 	c #AAD8A1",
"< 	c #A7D69E",
"[ 	c #A2D499",
"} 	c #9FD297",
"| 	c #95CD8C",
"1 	c #99CF91",
"2 	c #7BB873",
"3 	c #478F40",
"4 	c #6ABA5F",
"5 	c #67B65C",
"6 	c #64B359",
"7 	c #60AE56",
"8 	c #5DAA53",
"9 	c #59A650",
"0 	c #56A14D",
"a 	c #70B168",
"b 	c #90C888",
"c 	c #95CC8D",
"d 	c #92CB8B",
"e 	c #64A55D",
"f 	c #4E9746",
"g 	c #4A9242",
"h 	c #88C381",
"i 	c #85C47D",
"j 	c #75B36E",
"k 	c #3B7F35",
"l 	c #458D3E",
"m 	c #6BAB64",
"n 	c #86C47F",
"o 	c #81BE79",
"p 	c #367A31",
"q 	c #41873A",
"r 	c #67A861",
"s 	c #82C27B",
"t 	c #7CBC76",
"u 	c #32752D",
"v 	c #57A34E",
"w 	c #539E4B",
"x 	c #40863A",
"y 	c #3C8136",
"z 	c #7BBB75",
"A 	c #77BD70",
"B 	c #69AB63",
"C 	c #2E702A",
"D 	c #56A24D",
"E 	c #6FB167",
"F 	c #6BAD64",
"G 	c #4B9443",
"H 	c #438A3C",
"I 	c #408539",
"J 	c #5A9D54",
"K 	c #7ABA74",
"L 	c #7FC179",
"M 	c #7DBF77",
"N 	c #4F914A",
"O 	c #6EB066",
"P 	c #92CA8A",
"Q 	c #90CA89",
"R 	c #8DC886",
"S 	c #8AC683",
"T 	c #87C580",
"U 	c #84C37E",
"V 	c #81C27B",
"W 	c #74BB6D",
"X 	c #7CBE76",
"Y 	c #5DA059",
"Z 	c #2A6B26",
"` 	c #519C49",
" .	c #6AAC62",
"..	c #8DC885",
"+.	c #8BC785",
"@.	c #88C682",
"#.	c #82C27C",
"$.	c #80C179",
"%.	c #78B971",
"&.	c #65A85F",
"*.	c #4E9149",
"=.	c #2A6A25",
"-.	c #499142",
";.	c #62A45A",
">.	c #5EA158",
",.	c #3E8337",
"'.	c #3A7E34",
").	c #33752E",
"!.	c #2F712B",
"~.	c #2C6D28",
"{.	c #3D8237",
"                                ",
"                                ",
"    . + @ # $ % & * =           ",
"    - ; > , ' ) ! ~ { ] ^       ",
"    / ( _ : < ! [ } | 1 2 3     ",
"    4 5 6 7 8 9 0 a b c d e     ",
"                  f g h i j k   ",
"                    l m n o p   ",
"                    q r s t u   ",
"      v w         x y z A B C   ",
"    D E F G 3 H I J K L M N     ",
"  0 O P Q R S T U V W X Y Z     ",
"  `  ...+.@.n #.$.%.&.*.=.      ",
"    -.;.>.,.'.p ).!.~.          ",
"      q {.                      ",
"                                "};
