/* XPM */
static char * edit_tab_remove_xpm[] = {
"16 16 62 1",
" 	c None",
".	c #767676",
"+	c #747474",
"@	c #707070",
"#	c #6C6C6C",
"$	c #686868",
"%	c #636363",
"&	c #5E5E5E",
"*	c #595959",
"=	c #535353",
"-	c #4E4E4E",
";	c #484848",
">	c #424242",
",	c #84B0ED",
"'	c #5C5C5C",
")	c #575757",
"!	c #515151",
"~	c #4B4B4B",
"{	c #454545",
"]	c #3F3F3F",
"^	c #393939",
"/	c #333333",
"(	c #6FA5E5",
"_	c #7BABE9",
":	c #565656",
"<	c #505050",
"[	c #4A4A4A",
"}	c #444444",
"|	c #3E3E3E",
"1	c #383838",
"2	c #323232",
"3	c #2C2C2C",
"4	c #669FE2",
"5	c #8FB8E9",
"6	c #91B9EC",
"7	c #72A5E3",
"8	c #5996DE",
"9	c #649EE6",
"0	c #3C3C3C",
"a	c #353535",
"b	c #2F2F2F",
"c	c #292929",
"d	c #242424",
"e	c #1E1E1E",
"f	c #5A98E5",
"g	c #404040",
"h	c #3A3A3A",
"i	c #343434",
"j	c #2E2E2E",
"k	c #282828",
"l	c #232323",
"m	c #1D1D1D",
"n	c #181818",
"o	c #262626",
"p	c #202020",
"q	c #1B1B1B",
"r	c #161616",
"s	c #111111",
"t	c #0C0C0C",
"u	c #191919",
"v	c #141414",
"w	c #0F0F0F",
"                ",
"                ",
"                ",
"  .+@#$%&*=-;>  ",
"                ",
"   ,  ')!~{]^/  ",
"  (_  :<[}|123  ",
" 4567           ",
"  89  ;>0abcde  ",
"   f  ghijklmn  ",
"                ",
"  [}|123opqrst  ",
"                ",
"  0abcdeuvw     ",
"                ",
"                "};
