/* XPM */
static char * edit_paste_xpm[] = {
"16 16 119 2",
"  	c None",
". 	c #986320",
"+ 	c #A47537",
"@ 	c #FEEFB6",
"# 	c #F3DB80",
"$ 	c #A16E2E",
"% 	c #DBB371",
"& 	c #E4BF7E",
"* 	c #DF9D4E",
"= 	c #FDEEB5",
"- 	c #F0D475",
"; 	c #DE9B4B",
"> 	c #E0B46E",
", 	c #DFB36D",
"' 	c #E4BF7F",
") 	c #DEB269",
"! 	c #DA9B4A",
"~ 	c #DC9744",
"{ 	c #DC9643",
"] 	c #DC9642",
"^ 	c #DC9542",
"/ 	c #DB9541",
"( 	c #D69E51",
"_ 	c #DEB26C",
": 	c #E4BD7C",
"< 	c #DDAE65",
"[ 	c #DCAB62",
"} 	c #DAA85E",
"| 	c #D9A75C",
"1 	c #D79F52",
"2 	c #D8A362",
"3 	c #E3BB7A",
"4 	c #DBAA61",
"5 	c #D9A55A",
"6 	c #D7A053",
"7 	c #E2B976",
"8 	c #D8A458",
"9 	c #D59E53",
"0 	c #A98B61",
"a 	c #A18864",
"b 	c #A18764",
"c 	c #A08663",
"d 	c #9F8769",
"e 	c #81684A",
"f 	c #6A6A6A",
"g 	c #686868",
"h 	c #656565",
"i 	c #E1B773",
"j 	c #D7A357",
"k 	c #D59D50",
"l 	c #CF9952",
"m 	c #AC9475",
"n 	c #F8F8F8",
"o 	c #F2F2F2",
"p 	c #F1F1F1",
"q 	c #F4F4F4",
"r 	c #5E5E5E",
"s 	c #E0B570",
"t 	c #D69C50",
"u 	c #D4984E",
"v 	c #CD954F",
"w 	c #AA9173",
"x 	c #B7B7B7",
"y 	c #B6B6B6",
"z 	c #B5B5B5",
"A 	c #EEEEEE",
"B 	c #5A5A5A",
"C 	c #D59C50",
"D 	c #D3984E",
"E 	c #D1944B",
"F 	c #CB914C",
"G 	c #A78E70",
"H 	c #E9E9E9",
"I 	c #E8E8E8",
"J 	c #E7E7E7",
"K 	c #EDEDED",
"L 	c #565656",
"M 	c #DEB16B",
"N 	c #D3974D",
"O 	c #D2934B",
"P 	c #D08F48",
"Q 	c #C98C4A",
"R 	c #A58B6F",
"S 	c #B4B4B4",
"T 	c #535353",
"U 	c #DCAE69",
"V 	c #D1934A",
"W 	c #CE8B46",
"X 	c #C78847",
"Y 	c #A3886C",
"Z 	c #F0F0F0",
"` 	c #4F4F4F",
" .	c #DCAB68",
"..	c #CF8E48",
"+.	c #CD8743",
"@.	c #C68444",
"#.	c #A18568",
"$.	c #B3B3B3",
"%.	c #4C4C4C",
"&.	c #D7A562",
"*.	c #DAA865",
"=.	c #D9A664",
"-.	c #D8A462",
";.	c #D19F62",
">.	c #A48E75",
",.	c #EFEFEF",
"'.	c #E6E6E6",
").	c #ECECEC",
"!.	c #494949",
"~.	c #956324",
"{.	c #887358",
"].	c #F7F7F7",
"^.	c #F3F3F3",
"/.	c #464646",
"(.	c #585858",
"_.	c #555555",
":.	c #525252",
"<.	c #4A4A4A",
"[.	c #484848",
"      . . . . . .               ",
"  . . + @ # # @ $ . .           ",
". % & * = - - = ; > , .         ",
". ' ) ! ~ { ] ^ / ( _ .         ",
". : < [ } | | | | 1 2 .         ",
". 3 4 5 6 1 1 1 1 1 2 .         ",
". 7 | 8 6 9 0 a b c d e f g h   ",
". i j 6 k l m n o o o o o p q r ",
". s 1 t u v w p x y y y z z A B ",
". , C D E F G p H H I I I J K L ",
". M N O P Q R p y z z S S S K T ",
". U V P W X Y Z I I J J J J K ` ",
".  ...W +.@.#.Z S S S S S $.K %.",
". &.*.=.-.;.>.,.J J J J '.'.).!.",
"  . . . . ~.{.].Z Z Z Z Z Z ^./.",
"              (._.:.` %.<.[./.  "};
