/* XPM */
static const char * file_warning_xpm[] = {
"16 16 95 2",
"  	c None",
". 	c #F8F8F8",
"+ 	c #FBFBFB",
"@ 	c #FCFCFC",
"# 	c #949494",
"$ 	c #F4F4F4",
"% 	c #F5F5F5",
"& 	c #F1F1F1",
"* 	c #EFEFEF",
"= 	c #E9E9E9",
"- 	c #E7E7E7",
"; 	c #959595",
"> 	c #F7F7F7",
", 	c #F9F9F9",
"' 	c #F3F3F3",
") 	c #F0F0F0",
"! 	c #EAEAEA",
"~ 	c #F6F6F6",
"{ 	c #999999",
"] 	c #F2F2F2",
"^ 	c #EBEBEB",
"/ 	c #ECECEC",
"( 	c #E6E6E6",
"_ 	c #EEE3C3",
": 	c #E2C87C",
"< 	c #EDEBE2",
"[ 	c #EDEDED",
"} 	c #F9F7F2",
"| 	c #E1C473",
"1 	c #EDDBAB",
"2 	c #E6D29D",
"3 	c #ECD9AA",
"4 	c #EBD7A4",
"5 	c #FBF4DC",
"6 	c #D9B35B",
"7 	c #EFE7D3",
"8 	c #F6F0E0",
"9 	c #DAB45D",
"0 	c #F8EBB4",
"a 	c #F8E68E",
"b 	c #EEDDB5",
"c 	c #DEBF7E",
"d 	c #FBFAF8",
"e 	c #FBFAFA",
"f 	c #E3C78C",
"g 	c #ECD9AC",
"h 	c #F8E382",
"i 	c #C28833",
"j 	c #FAEDAC",
"k 	c #CF9E44",
"l 	c #EDDCBF",
"m 	c #F0E3C9",
"n 	c #DFBD7B",
"o 	c #F9EAA2",
"p 	c #F6DC61",
"q 	c #C28731",
"r 	c #F7E177",
"s 	c #F0DEB6",
"t 	c #D2A559",
"u 	c #D8B168",
"v 	c #EFDBAB",
"w 	c #F7E074",
"x 	c #F5DA58",
"y 	c #F5DB5D",
"z 	c #F8E690",
"A 	c #E1C192",
"B 	c #A27229",
"C 	c #E8D2AD",
"D 	c #E1C28E",
"E 	c #F9E897",
"F 	c #F5DB5B",
"G 	c #C28832",
"H 	c #F6DE6A",
"I 	c #F6E7B1",
"J 	c #BE802C",
"K 	c #CE9C4D",
"L 	c #F6ECDD",
"M 	c #F9EEBD",
"N 	c #F8EAAC",
"O 	c #F8EAAB",
"P 	c #F8EAAD",
"Q 	c #FBF3D4",
"R 	c #E4C8A4",
"S 	c #BE7B26",
"T 	c #C28831",
"U 	c #C28630",
"V 	c #C1842F",
"W 	c #C0822D",
"X 	c #BF802B",
"Y 	c #BE7E29",
"Z 	c #BE7C28",
"` 	c #BD7A26",
" .	c #BC7825",
"..	c #BC7723",
"+.	c #BC7622",
"                                ",
"    . + @ @ @ @ @ @ . #         ",
"    + $ % % % & * = @ - ;       ",
"    @ > , > > ' ) ! @ ~ $ {     ",
"    @ , , , > ~ ] ^ @ @ @ @     ",
"    @ + @ @ + . % & / ! ( @     ",
"    @ @ @ @ @ + . _ : < [ @     ",
"    @ @ @ @ @ @ } | 1 2 ] @     ",
"    @ @ @ @ @ @ 3 4 5 6 7 @     ",
"    @ @ @ @ @ 8 9 0 a b c d     ",
"    @ @ @ @ e f g h i j k l     ",
"    @ @ @ @ m n o p q r s t     ",
"    @ @ @ d u v w x x y z A B   ",
"    @ @ @ C D E p F G F H I J   ",
"    , @ @ K L M N O O O P Q R S ",
"          T U V W X Y Z `  ...+."};
