/* XPM */
static char * file_quit_xpm[] = {
"16 16 104 2",
"  	c None",
". 	c #FF0000",
"+ 	c #FD0000",
"@ 	c #FF2B26",
"# 	c #FF695C",
"$ 	c #FF685B",
"% 	c #FE675A",
"& 	c #FE6558",
"* 	c #FE6356",
"= 	c #FE6154",
"- 	c #FC2722",
"; 	c #FB0000",
"> 	c #FF6A5D",
", 	c #FF4743",
"' 	c #FE3434",
") 	c #FE3232",
"! 	c #FD3030",
"~ 	c #FD2D2D",
"{ 	c #FC3C38",
"] 	c #FC5D4F",
"^ 	c #FA251F",
"/ 	c #F70000",
"( 	c #FF5B58",
"_ 	c #FFCFCF",
": 	c #FE5252",
"< 	c #FD2F2F",
"[ 	c #FD2C2C",
"} 	c #FC4B4B",
"| 	c #FECCCC",
"1 	c #FB4C48",
"2 	c #FB5749",
"3 	c #F9231D",
"4 	c #F50000",
"5 	c #FE4743",
"6 	c #FFF3F3",
"7 	c #FFEDED",
"8 	c #FC4C4C",
"9 	c #FC4A4A",
"0 	c #FFECEC",
"a 	c #FFF2F2",
"b 	c #FECACA",
"c 	c #FA2F2A",
"d 	c #FA5142",
"e 	c #F30000",
"f 	c #FE3333",
"g 	c #FD5050",
"h 	c #FEECEC",
"i 	c #FA3E3E",
"j 	c #F81717",
"k 	c #F94E3F",
"l 	c #F10000",
"m 	c #FE6457",
"n 	c #F93D3D",
"o 	c #F81616",
"p 	c #F71313",
"q 	c #F84B3C",
"r 	c #FE6255",
"s 	c #FC2929",
"t 	c #FC4848",
"u 	c #F93A3A",
"v 	c #F71212",
"w 	c #F60F0F",
"x 	c #F84838",
"y 	c #FD5F52",
"z 	c #FC2828",
"A 	c #FC4747",
"B 	c #FFF1F1",
"C 	c #FEEAEA",
"D 	c #F73434",
"E 	c #F50B0B",
"F 	c #F84535",
"G 	c #EF0000",
"H 	c #FD5D4F",
"I 	c #FB3732",
"J 	c #FECBCB",
"K 	c #FEEBEB",
"L 	c #F93B3B",
"M 	c #F83939",
"N 	c #FEF1F1",
"O 	c #FDC5C5",
"P 	c #F61D18",
"Q 	c #F74333",
"R 	c #F90000",
"S 	c #FB584A",
"T 	c #FB4742",
"U 	c #FDC9C9",
"V 	c #F61010",
"W 	c #F73333",
"X 	c #F73530",
"Y 	c #F74434",
"Z 	c #F21B14",
"` 	c #ED0000",
" .	c #FA5344",
"..	c #F92924",
"+.	c #F50C0C",
"@.	c #F50909",
"#.	c #F51B16",
"$.	c #F11B14",
"%.	c #F5201A",
"&.	c #F94C3C",
"*.	c #F8493A",
"=.	c #F84738",
"-.	c #F74334",
";.	c #F74232",
"                                ",
"        . . . . + + + +         ",
"      . @ # $ % & * = - ;       ",
"    . @ > , ' ) ! ~ { ] ^ /     ",
"  . @ > ( _ : < [ } | 1 2 3 4   ",
"  . $ 5 _ 6 7 8 9 0 a b c d e   ",
"  . % f g 7 6 7 7 a h i j k l   ",
"  + m ! ~ } 7 a a 0 n o p q l   ",
"  + r [ s t 7 a a h u v w x l   ",
"  + y z A 0 a 0 h B C D E F G   ",
"  ; H I J a K L M C N O P Q G   ",
"  R ^ S T U L p V W O X Y Z `   ",
"    / 3  ...v w +.@.#.Q $.`     ",
"      4 %.&.*.=.F -.;.$.`       ",
"        l l l l G G ` `         ",
"                                "};
