/* XPM */
static const char * folder_error_xpm[] = {
"16 16 155 2",
"  	c None",
". 	c #3FBB39",
"+ 	c #3FB83B",
"@ 	c #2CBE2E",
"# 	c #42BB3C",
"$ 	c #29AC26",
"% 	c #23A021",
"& 	c #3DB539",
"* 	c #2EA52E",
"= 	c #47B149",
"- 	c #399936",
"; 	c #C9F3B6",
"> 	c #A7A188",
", 	c #189919",
"' 	c #A4CE95",
") 	c #BAD6A3",
"! 	c #79B66E",
"~ 	c #007600",
"{ 	c #A6CD93",
"] 	c #29741D",
"^ 	c #2E942E",
"/ 	c #3CAE37",
"( 	c #32A033",
"_ 	c #A2CE92",
": 	c #89B760",
"< 	c #69AB4B",
"[ 	c #3B9935",
"} 	c #91C182",
"| 	c #25741F",
"1 	c #D9B434",
"2 	c #E1C25E",
"3 	c #E2C360",
"4 	c #B4BC54",
"5 	c #1D931D",
"6 	c #86BE78",
"7 	c #8FB966",
"8 	c #6CAC50",
"9 	c #359536",
"0 	c #8BB771",
"a 	c #90BB6F",
"b 	c #378737",
"c 	c #18751A",
"d 	c #DAB336",
"e 	c #FEFEFD",
"f 	c #FFFFFE",
"g 	c #FFFEFE",
"h 	c #FFFEFD",
"i 	c #329331",
"j 	c #A4CB8E",
"k 	c #73B056",
"l 	c #41983E",
"m 	c #90B879",
"n 	c #5F9E3C",
"o 	c #8EBD77",
"p 	c #2C752D",
"q 	c #256A21",
"r 	c #DAAF35",
"s 	c #FEFCF7",
"t 	c #F8E48E",
"u 	c #F5DE91",
"v 	c #F5E09F",
"w 	c #F6E1AC",
"x 	c #85BA7D",
"y 	c #549B4D",
"z 	c #4A9C49",
"A 	c #8AB16D",
"B 	c #6CA244",
"C 	c #93BC87",
"D 	c #126217",
"E 	c #7D8C29",
"F 	c #DAAA36",
"G 	c #FDFAF1",
"H 	c #F5DE94",
"I 	c #F4DC93",
"J 	c #F2D581",
"K 	c #E9C060",
"L 	c #E1AE4F",
"M 	c #DA9435",
"N 	c #205D1D",
"O 	c #DAAB35",
"P 	c #FBF6E8",
"Q 	c #EAC57E",
"R 	c #E3AE5B",
"S 	c #E1A851",
"T 	c #E4AF60",
"U 	c #FDFAEB",
"V 	c #FEFAEC",
"W 	c #BCCBA7",
"X 	c #A6BB94",
"Y 	c #9CB58B",
"Z 	c #C4CEAE",
"` 	c #DAA637",
" .	c #FFFDF8",
"..	c #FFFDF6",
"+.	c #FFFCF5",
"@.	c #FEFAE8",
"#.	c #FAECAF",
"$.	c #F8E387",
"%.	c #F7E07D",
"&.	c #DCCF69",
"*.	c #9EA74E",
"=.	c #F0EFDE",
"-.	c #DAA136",
";.	c #FEFCF6",
">.	c #FCF2C8",
",.	c #FBEFB9",
"'.	c #FAECAC",
").	c #F8E48C",
"!.	c #F8E38A",
"~.	c #F7E182",
"{.	c #F7DF79",
"].	c #F6DD6D",
"^.	c #F5DA61",
"/.	c #F4D757",
"(.	c #FDF8E7",
"_.	c #DA9A36",
":.	c #FDFAF2",
"<.	c #FAEDB3",
"[.	c #F9E9A4",
"}.	c #F8E695",
"|.	c #F7E285",
"1.	c #F7E181",
"2.	c #F7E07A",
"3.	c #F6DD6F",
"4.	c #F5DA62",
"5.	c #F3D654",
"6.	c #F2D347",
"7.	c #FDF9E8",
"8.	c #FEFAEF",
"9.	c #F9E9A1",
"0.	c #F8E591",
"a.	c #F6DE72",
"b.	c #F5DA63",
"c.	c #F4D754",
"d.	c #F3D347",
"e.	c #F2D039",
"f.	c #F1CD2E",
"g.	c #F0CB26",
"h.	c #FBF2CA",
"i.	c #D98E33",
"j.	c #FAF0DC",
"k.	c #F4DDA7",
"l.	c #F4DB9E",
"m.	c #F3DA96",
"n.	c #F3D88E",
"o.	c #F3D786",
"p.	c #F2D47F",
"q.	c #F2D379",
"r.	c #F1D272",
"s.	c #F1D06C",
"t.	c #F1CF69",
"u.	c #F8EAC2",
"v.	c #D8882D",
"w.	c #D8872D",
"x.	c #D8862C",
"                  . +   @       ",
"              #     $   %       ",
"              &   * = - ; >     ",
"                , ' ) ! ~ { ] ^ ",
"          /   ( _ : < [ } |     ",
"1 2 3 3 3 4 5 6 7 8 9 0 a b c   ",
"d e f g h f i j k l m n o p   q ",
"r s t u v w x y z A B C D E     ",
"F G H I J K L M M M M M M M N   ",
"O P Q R S T U V W X Y Z f M     ",
"` f  ...+.@.#.t $.%.&.*.=.M     ",
"-.;.>.,.'.).!.~.{.].^./.(.M     ",
"_.:.<.[.}.|.1.2.3.4.5.6.7.M     ",
"M 8.9.0.1.a.b.c.d.e.f.g.h.M     ",
"i.j.k.l.m.n.o.p.q.r.s.t.u.i.    ",
"  v.w.v.v.v.v.v.v.v.v.w.v.x.    "};
