/* XPM */
static char * folder_warning_xpm[] = {
"16 16 157 2",
"  	c None",
". 	c #D9B434",
"+ 	c #E1C25E",
"@ 	c #E2C360",
"# 	c #E2C35F",
"$ 	c #DBB63C",
"% 	c #DAB336",
"& 	c #FEFEFD",
"* 	c #FFFFFE",
"= 	c #FFFEFE",
"- 	c #FFFEFD",
"; 	c #FBF7EA",
"> 	c #E4C76B",
", 	c #E3C76B",
"' 	c #E6CD79",
") 	c #E5CA74",
"! 	c #DAAF35",
"~ 	c #FEFCF7",
"{ 	c #F8E48E",
"] 	c #F5DE91",
"^ 	c #F5E09F",
"/ 	c #F6E1AC",
"( 	c #FEFBEF",
"_ 	c #FEFDF4",
": 	c #FEFCF3",
"< 	c #FEFCF1",
"[ 	c #FEFBEE",
"} 	c #FFFDFA",
"| 	c #DAAF36",
"1 	c #DAAA36",
"2 	c #FDFAF1",
"3 	c #F5DE94",
"4 	c #F4DC93",
"5 	c #F2D581",
"6 	c #EDCA6A",
"7 	c #EACB6C",
"8 	c #EFD385",
"9 	c #EFD280",
"0 	c #EFD07A",
"a 	c #EECF76",
"b 	c #EECF72",
"c 	c #FBF7E9",
"d 	c #DAAE34",
"e 	c #DAAB35",
"f 	c #FBF6E8",
"g 	c #EFD494",
"h 	c #EECE88",
"i 	c #E9C173",
"j 	c #F6E9C9",
"k 	c #FEFCF2",
"l 	c #F4E8C1",
"m 	c #E5CB7C",
"n 	c #FBF5E2",
"o 	c #DAAB36",
"p 	c #DAA637",
"q 	c #FFFDF8",
"r 	c #FFFDF6",
"s 	c #FFFCF5",
"t 	c #FCF6D8",
"u 	c #F7E491",
"v 	c #E1C160",
"w 	c #EDDBAB",
"x 	c #E7C75E",
"y 	c #F4D85C",
"z 	c #FCF4D7",
"A 	c #DAA435",
"B 	c #DAA136",
"C 	c #FEFCF6",
"D 	c #FCF2C8",
"E 	c #FBEFB9",
"F 	c #FAECAC",
"G 	c #F9E89C",
"H 	c #F7E38B",
"I 	c #E9CB69",
"J 	c #EBD7A4",
"K 	c #FBF4DC",
"L 	c #D9B151",
"M 	c #EDCB46",
"N 	c #FCF3D0",
"O 	c #DA9F35",
"P 	c #DA9A36",
"Q 	c #FDFAF2",
"R 	c #FAEDB3",
"S 	c #F9E9A4",
"T 	c #F8E695",
"U 	c #F7E285",
"V 	c #F1D770",
"W 	c #D9B252",
"X 	c #F8EBB4",
"Y 	c #F8E68E",
"Z 	c #EEDDB5",
"` 	c #DCB241",
" .	c #FAF0C9",
"..	c #DA9835",
"+.	c #DA9435",
"@.	c #FEFAEF",
"#.	c #F9E9A1",
"$.	c #F8E591",
"%.	c #F7E181",
"&.	c #F6DE72",
"*.	c #E1BB55",
"=.	c #ECD9AC",
"-.	c #F8E382",
";.	c #C28833",
">.	c #FAEDAC",
",.	c #CF9E43",
"'.	c #ECD69D",
").	c #D98E33",
"!.	c #FAF0DC",
"~.	c #F4DDA7",
"{.	c #F4DB9E",
"].	c #F3DA96",
"^.	c #EACA7B",
"/.	c #DFBD7B",
"(.	c #F9EAA2",
"_.	c #F6DC61",
":.	c #C28731",
"<.	c #F7E177",
"[.	c #F0DEB6",
"}.	c #D1A250",
"|.	c #D88E33",
"1.	c #D8882D",
"2.	c #D8872D",
"3.	c #D8892E",
"4.	c #D19A3F",
"5.	c #EFDBAB",
"6.	c #F7E074",
"7.	c #F5DA58",
"8.	c #F5DB5D",
"9.	c #F8E690",
"0.	c #E1C192",
"a.	c #CC8930",
"b.	c #E1C28E",
"c.	c #F9E897",
"d.	c #F5DB5B",
"e.	c #C28832",
"f.	c #F6DE6A",
"g.	c #F6E7B1",
"h.	c #C2832D",
"i.	c #C99138",
"j.	c #F6ECDD",
"k.	c #F9EEBD",
"l.	c #F8EAAC",
"m.	c #F8EAAB",
"n.	c #F8EAAD",
"o.	c #FBF3D4",
"p.	c #E4C8A4",
"q.	c #BE7B26",
"r.	c #C58A32",
"s.	c #C48730",
"t.	c #C3852F",
"u.	c #C1812B",
"v.	c #C07F29",
"w.	c #BF7D28",
"x.	c #BD7925",
"y.	c #BD7723",
"z.	c #BC7622",
"                                ",
"                                ",
"  . + @ @ @ # $                 ",
"  % & * = - * ; > , , , ' )     ",
"  ! ~ { ] ^ / ( _ : < ( [ } |   ",
"  1 2 3 4 5 6 7 8 9 0 a b c d   ",
"  e f g h i j k : l m n [ * o   ",
"  p * q r s : t u v w x y z A   ",
"  B C D E F G H I J K L M N O   ",
"  P Q R S T U V W X Y Z `  ...  ",
"  +.@.#.$.%.&.*.=.-.;.>.,.'.+.  ",
"  ).!.~.{.].^./.(._.:.<.[.}.|.  ",
"    1.2.1.3.4.5.6.7.7.8.9.0.a.  ",
"            b.c._.d.e.d.f.g.h.  ",
"          i.j.k.l.m.m.m.n.o.p.q.",
"          r.s.t.h.u.v.w.q.x.y.z."};
