/* XPM */
static char * icon_ac_fnarg_xpm[] = {
"16 16 4 1",
" 	c None",
".	c #000000",
"+	c #696969",
"@	c #A8A8A8",
"                ",
"                ",
"   .        .   ",
"  .          .  ",
" .. ++++++++ .. ",
" .  +@@@@@@+  . ",
" .  +@@@@@@+  . ",
" .  +@@@@@@+  . ",
" .  +@@@@@@+  . ",
" .  +@@@@@@+  . ",
" .. ++++++++ .. ",
"  .          .  ",
"   .        .   ",
"                ",
"                ",
"                "};
