/* XPM */
static char * icon_ac_crate_xpm[] = {
"16 16 5 1",
" 	c None",
".	c #000000",
"+	c #919191",
"@	c #545454",
"#	c #DFDFDF",
"                ",
" ...........    ",
" ..+++++++++.   ",
" .@.+++++++++.  ",
" .@@........... ",
" .@@.#########. ",
" .@@.#########. ",
" .@@.#########. ",
" .@@.#########. ",
" .@@.#########. ",
" .@@.#########. ",
" .@@.#########. ",
"  .@.#########. ",
"   ..#########. ",
"    ........... ",
"                "};
