/* XPM */
static char * icon_ac_module_xpm[] = {
"16 16 19 1",
" 	c None",
".	c #000000",
"+	c #ABABAB",
"@	c #9B9B9B",
"#	c #AEAEAE",
"$	c #A3A3A3",
"%	c #A0A0A0",
"&	c #A4A4A4",
"*	c #9C9C9C",
"=	c #9F9F9F",
"-	c #A7A7A7",
";	c #A2A2A2",
">	c #A5A5A5",
",	c #ACACAC",
"'	c #949494",
")	c #A9A9A9",
"!	c #A6A6A6",
"~	c #ADADAD",
"{	c #9A9A9A",
"                ",
"       ...      ",
"      .+@@.     ",
"       .#.      ",
"   .....@....   ",
"   .$%&@%%@*.   ",
"   .@@@@$@**... ",
" ...@@@@@@&*@*@.",
".&=@-@@@;@@@.>@.",
".;=.;*;#.,@@'.. ",
" ..)*@-. .!@.   ",
"   .@@.   .@.   ",
"   .~@~. .{{.   ",
"    ...   ...   ",
"                ",
"                "};
