/* XPM */
static const char * icon_ac_let_xpm[] = {
"16 16 2 1",
" 	c None",
".	c #000000",
"                ",
"                ",
"                ",
"                ",
"                ",
"   ..........   ",
"   ..........   ",
"                ",
"                ",
"                ",
"   ..........   ",
"   ..........   ",
"                ",
"                ",
"                ",
"                "};
