/* XPM */
static const char * icon_ac_snippet_xpm[] = {
"16 16 7 1",
" 	c None",
".	c #000000",
"+	c #D2D2D2",
"@	c #CFCFCF",
"#	c #D1D1D1",
"$	c #EDEDED",
"%	c #101010",
"                ",
"     .          ",
"     .          ",
"     .          ",
" ..........     ",
" .+@#.++++..    ",
" .+++.++++.$%   ",
" .+++.++++....  ",
" .+.+.+.+++++.  ",
" .++...++++++.  ",
" .+++.+++++++.  ",
"  +++++++++++   ",
" .+++++++++++.  ",
"  + + + + + +   ",
" . + + + + + .  ",
"                "};
