/* XPM */
static const char * project_doc_xpm[] = {
"16 16 161 2",
"  	c None",
". 	c #5FACE2",
"+ 	c #81BCEA",
"@ 	c #77B7E8",
"# 	c #6DB2E6",
"$ 	c #68B0E4",
"% 	c #8CC0EA",
"& 	c #FFFFFF",
"* 	c #F4F9FD",
"= 	c #EAF3FB",
"- 	c #D9EBF8",
"; 	c #D3E6F8",
"> 	c #C6DFF5",
", 	c #A6CBE9",
"' 	c #5DA8DE",
") 	c #5BA4DA",
"! 	c #9AC6EB",
"~ 	c #E2EFFC",
"{ 	c #E7F0FD",
"] 	c #EBF1FD",
"^ 	c #EEF5FD",
"/ 	c #F1F8FD",
"( 	c #F7FAFD",
"_ 	c #FAFCFF",
": 	c #F7FBFE",
"< 	c #C0DAF4",
"[ 	c #589FD5",
"} 	c #A5CAEB",
"| 	c #FBFDFF",
"1 	c #D5E9FD",
"2 	c #D8EBFD",
"3 	c #DBEAFD",
"4 	c #DFEDFD",
"5 	c #E2F0FD",
"6 	c #E4F1FD",
"7 	c #E4F0FC",
"8 	c #70A0E0",
"9 	c #F9FBFF",
"0 	c #87B8DF",
"a 	c #559AD0",
"b 	c #B2D0ED",
"c 	c #F0F6FF",
"d 	c #CAE1FA",
"e 	c #CCE3FB",
"f 	c #D0E3FB",
"g 	c #D3E6FB",
"h 	c #D5E9FB",
"i 	c #D8E9FC",
"j 	c #DBEAFC",
"k 	c #FDFFFF",
"l 	c #719DD2",
"m 	c #C1D9EE",
"n 	c #5294CA",
"o 	c #C1D9F0",
"p 	c #E1EDFB",
"q 	c #C0DAF9",
"r 	c #C2DCF9",
"s 	c #C5DEF9",
"t 	c #C7E0FA",
"u 	c #CAE2FA",
"v 	c #CDE2FA",
"w 	c #D0E5FA",
"x 	c #FDFEFF",
"y 	c #5A8FCB",
"z 	c #4E8EC4",
"A 	c #D8E7F5",
"B 	c #D2E5FA",
"C 	c #BCDAF9",
"D 	c #BCDBF9",
"E 	c #BFDBFA",
"F 	c #C1DDFA",
"G 	c #C4DDF9",
"H 	c #C8E1FB",
"I 	c #5794C8",
"J 	c #4B88BD",
"K 	c #F0F6FC",
"L 	c #C7DFF9",
"M 	c #BDDCF9",
"N 	c #BFDCFA",
"O 	c #C1DBFA",
"P 	c #C3DDFA",
"Q 	c #C2DDFA",
"R 	c #C9E0FB",
"S 	c #538DC1",
"T 	c #4B85B9",
"U 	c #C1DCF9",
"V 	c #BFDCF8",
"W 	c #C0DBF8",
"X 	c #C0DDF9",
"Y 	c #C3DDF9",
"Z 	c #CBE2FB",
"` 	c #F5F9FC",
" .	c #4782B7",
"..	c #5286B9",
"+.	c #F9FCFE",
"@.	c #BFDCF9",
"#.	c #BFDBF8",
"$.	c #C0DCF8",
"%.	c #C2DBF9",
"&.	c #C2DDF9",
"*.	c #D4E7FB",
"=.	c #E2EDF5",
"-.	c #437BB1",
";.	c #5686B7",
">.	c #FDFEFE",
",.	c #C2DEFA",
"'.	c #C0DBF9",
").	c #C1DDF9",
"!.	c #C0DBFA",
"~.	c #C3DCFA",
"{.	c #DEEBFD",
"].	c #CDDCEC",
"^.	c #4075AA",
"/.	c #3C6FA4",
"(.	c #8CAED5",
"_.	c #E5F0FD",
":.	c #A2C7F7",
"<.	c #ADCFF7",
"[.	c #B5D5F9",
"}.	c #BDDAF8",
"|.	c #C2DEF8",
"1.	c #C6E1FA",
"2.	c #CCE4FA",
"3.	c #ECF5FD",
"4.	c #BACEE2",
"5.	c #39699E",
"6.	c #5985B4",
"7.	c #7BA5D9",
"8.	c #6F9ED8",
"9.	c #6A9BD7",
"0.	c #6396D8",
"a.	c #5D92D6",
"b.	c #598FD4",
"c.	c #578ED3",
"d.	c #699DE2",
"e.	c #D1E3FA",
"f.	c #A2BBD8",
"g.	c #366499",
"h.	c #85A4C7",
"i.	c #FCFEFF",
"j.	c #F1F7FE",
"k.	c #F1F6FE",
"l.	c #86AEE4",
"m.	c #DBE8FA",
"n.	c #95AFCE",
"o.	c #6D90B8",
"p.	c #A3BAD6",
"q.	c #B3C6DF",
"r.	c #C3D4E7",
"s.	c #D3DFEE",
"t.	c #E2EAF5",
"u.	c #EFF4FB",
"v.	c #F6FAFD",
"w.	c #DFEBFB",
"x.	c #E6EFFB",
"y.	c #809DC1",
"z.	c #315B90",
"A.	c #396195",
"B.	c #41699A",
"C.	c #4F74A3",
"D.	c #5F82AD",
"      . + @ # $ . . . . . .     ",
"      % & & & & * = - ; > , '   ",
"    ) ! & ~ { ] ^ / ( _ & : < ) ",
"    [ } | 1 2 3 4 5 6 7 & 8 9 0 ",
"    a b c d e f g h i j k l m a ",
"    n o p q r s t u v w x y n   ",
"    z A B C D E F F G H | I     ",
"    J K L M N O P Q G R _ S     ",
"    T : U V V W X X Y Z `  .    ",
"    ..+.@.#.$.%.U &.P *.=.-.    ",
"    ;.>.,.N '.'.).!.~.{.].^.    ",
"  /.(._.:.<.[.}.|.1.2.3.4./.    ",
"  5.6.7.8.9.0.a.b.c.d.e.f.5.    ",
"g.h.& & & & i.: j.k.l.m.n.g.    ",
"  o.p.q.r.s.t.u.v.x w.x.y.      ",
"  z.z.z.z.z.z.z.A.B.C.D.z.      "};
