/* XPM */
static char * project_update_xpm[] = {
"16 16 182 2",
"  	c None",
". 	c #6EC461",
"+ 	c #BBE1A5",
"@ 	c #CCEABA",
"# 	c #BEE0C5",
"$ 	c #B4DAC5",
"% 	c #B0D7BD",
"& 	c #ACD7A6",
"* 	c #69BE5D",
"= 	c #66BA5A",
"- 	c #A2D88C",
"; 	c #E8F5CD",
"> 	c #DAEDD4",
", 	c #D3EDCE",
"' 	c #AFDFCF",
") 	c #B5DED6",
"! 	c #A2D4D4",
"~ 	c #A1D0CE",
"{ 	c #AAD0C4",
"] 	c #91C987",
"^ 	c #5DAF53",
"/ 	c #A0D787",
"( 	c #DEF2C0",
"_ 	c #D6F2C7",
": 	c #D5EFD5",
"< 	c #CFE9D0",
"[ 	c #A6DBD5",
"} 	c #ABDEDC",
"| 	c #90CDDB",
"1 	c #8BC8D7",
"2 	c #8EC1C9",
"3 	c #AFD5BD",
"4 	c #91C77A",
"5 	c #53A34A",
"6 	c #E2F3C0",
"7 	c #B4EFB5",
"8 	c #ACF0B5",
"9 	c #B7EDC1",
"0 	c #B7E3D4",
"a 	c #9CD8D9",
"b 	c #95D3DA",
"c 	c #6DB5CD",
"d 	c #6DB3C7",
"e 	c #84CBB5",
"f 	c #9ADF94",
"g 	c #CDE7AF",
"h 	c #4D9B46",
"i 	c #B5DE98",
"j 	c #CCEBB5",
"k 	c #A7EFB1",
"l 	c #A9EEC9",
"m 	c #C9EAD1",
"n 	c #8DCFD5",
"o 	c #8BCBD9",
"p 	c #66B4CD",
"q 	c #67BCBC",
"r 	c #71D69A",
"s 	c #73DE82",
"t 	c #71DC7A",
"u 	c #A3D091",
"v 	c #A4C888",
"w 	c #438F3D",
"x 	c #D2ECB3",
"y 	c #A2E29B",
"z 	c #8DEA9D",
"A 	c #B7EDD4",
"B 	c #C7EAD0",
"C 	c #6EB9CF",
"D 	c #66B1CC",
"E 	c #75C9CB",
"F 	c #67DB76",
"G 	c #4DD966",
"H 	c #4DD765",
"I 	c #5DD36C",
"J 	c #7EBB73",
"K 	c #C2DBA5",
"L 	c #3E8839",
"M 	c #DCF0BE",
"N 	c #83D881",
"O 	c #6DDB77",
"P 	c #9AE5BF",
"Q 	c #A7DFCC",
"R 	c #5DA8CA",
"S 	c #6CBDC2",
"T 	c #8BDAB8",
"U 	c #60D8A6",
"V 	c #3FD177",
"W 	c #46D06A",
"X 	c #50BC59",
"Y 	c #6CAB63",
"Z 	c #CEE4B2",
"` 	c #398235",
" .	c #6DC360",
"..	c #DDEFBE",
"+.	c #7DD173",
"@.	c #6CD190",
"#.	c #9EE0BC",
"$.	c #5EA7C7",
"%.	c #5EB0D3",
"&.	c #5399C6",
"*.	c #6EBCC6",
"=.	c #7AD1AF",
"-.	c #6DC4B4",
";.	c #5FA9AF",
">.	c #57A97B",
",.	c #67A35A",
"'.	c #CEE3B1",
").	c #357E31",
"!.	c #6ABF5E",
"~.	c #CFE9B0",
"{.	c #90D483",
"].	c #8ADCBF",
"^.	c #82CBC3",
"/.	c #56A2CC",
"(.	c #5CAFDA",
"_.	c #5BAFDC",
":.	c #4B9AC9",
"<.	c #4386BF",
"[.	c #4384B7",
"}.	c #529AB9",
"|.	c #62A596",
"1.	c #76A665",
"2.	c #BDD8A2",
"3.	c #327A2F",
"4.	c #AFD792",
"5.	c #B4DEA0",
"6.	c #70C684",
"7.	c #80D0A8",
"8.	c #5CA5C5",
"9.	c #57A7D0",
"0.	c #56AAE0",
"a.	c #51A6DA",
"b.	c #4A98C7",
"c.	c #478CB9",
"d.	c #579BB6",
"e.	c #659F81",
"f.	c #90BF79",
"g.	c #9CBE81",
"h.	c #D3EAB5",
"i.	c #74BC69",
"j.	c #71BD6E",
"k.	c #6DB6BE",
"l.	c #5BA3C9",
"m.	c #5BABDF",
"n.	c #58A8DD",
"o.	c #4E92C1",
"p.	c #58A99D",
"q.	c #66B178",
"r.	c #67965A",
"s.	c #C0DCA6",
"t.	c #57A84E",
"u.	c #8DC076",
"v.	c #B3D799",
"w.	c #80C079",
"x.	c #7EC2BC",
"y.	c #6AA9C6",
"z.	c #69B1D7",
"A.	c #65ADD6",
"B.	c #5E9BBC",
"C.	c #6AAD60",
"D.	c #689759",
"E.	c #99C181",
"F.	c #7BA967",
"G.	c #86B770",
"H.	c #C7E8AE",
"I.	c #A0D2C0",
"J.	c #81B3C5",
"K.	c #7DB4CA",
"L.	c #78AFCC",
"M.	c #78A7B9",
"N.	c #95CC80",
"O.	c #BCDAA0",
"P.	c #7AA866",
"Q.	c #3F8A3A",
"R.	c #9DC59B",
"S.	c #9DC2B3",
"T.	c #9CC1BD",
"U.	c #9DC3BE",
"V.	c #B1D2B0",
"W.	c #9AC07E",
"X.	c #378033",
"Y.	c #347D31",
"          . . . . . .           ",
"      . . + @ # $ % & * =       ",
"    . - ; > , ' ) ! ~ { ] ^     ",
"  . / ( _ : < [ } | 1 2 3 4 5   ",
"  . 6 7 8 9 0 a b c d e f g h   ",
". i j k l m n o p q r s t u v w ",
". x y z A B C D E F G H I J K L ",
". M N O P Q R S T U V W X Y Z ` ",
" ...+.@.#.$.%.&.*.=.-.;.>.,.'.).",
"!.~.{.].^./.(._.:.<.[.}.|.1.2.3.",
"= 4.5.6.7.8.9.0.a.b.c.d.e.f.g.3.",
"  ^ h.i.j.k.l.m.n.o.p.q.r.s.3.  ",
"  t.u.v.w.x.y.z.A.B.C.D.E.F.3.  ",
"    h G.H.I.J.K.L.M.N.O.P.3.    ",
"      w Q.R.S.T.U.V.W.3.3.      ",
"          X.Y.3.3.3.3.          "};
