/* XPM */
static char * project_run_xpm[] = {
"16 16 123 2",
"  	c None",
". 	c #86ACDD",
"+ 	c #8DB1DD",
"@ 	c #7BA7DC",
"# 	c #7AA6DC",
"$ 	c #7AA4DA",
"% 	c #79A2D8",
"& 	c #79A1D8",
"* 	c #76A0D5",
"= 	c #759ED4",
"- 	c #739DD2",
"; 	c #729ACF",
"> 	c #7099CE",
", 	c #6F96CB",
"' 	c #6C94C9",
") 	c #7A9AC4",
"! 	c #7193C3",
"~ 	c #85ACDD",
"{ 	c #CEDCF1",
"] 	c #A0C1EA",
"^ 	c #92B9E8",
"/ 	c #C5C8CD",
"( 	c #FF6444",
"_ 	c #A7C4E8",
": 	c #6F90C1",
"< 	c #7AA4DB",
"[ 	c #79A3DA",
"} 	c #78A1D7",
"| 	c #769FD5",
"1 	c #749ED3",
"2 	c #739CD1",
"3 	c #7097CD",
"4 	c #6E95CB",
"5 	c #6B91C7",
"6 	c #698FC4",
"7 	c #678DC3",
"8 	c #668BC0",
"9 	c #313131",
"0 	c #323232",
"a 	c #333333",
"b 	c #343434",
"c 	c #353535",
"d 	c #363636",
"e 	c #373737",
"f 	c #393939",
"g 	c #3B3B3B",
"h 	c #3C3C3C",
"i 	c #3D3D3D",
"j 	c #3F3F3F",
"k 	c #414141",
"l 	c #434343",
"m 	c #6387BD",
"n 	c #79A3D9",
"o 	c #202020",
"p 	c #212121",
"q 	c #222222",
"r 	c #242424",
"s 	c #252525",
"t 	c #262626",
"u 	c #282828",
"v 	c #2A2A2A",
"w 	c #2C2C2C",
"x 	c #2D2D2D",
"y 	c #2F2F2F",
"z 	c #464646",
"A 	c #6085BA",
"B 	c #CFCFCF",
"C 	c #A8A8A8",
"D 	c #5E81B7",
"E 	c #DEDEDE",
"F 	c #747474",
"G 	c #4B4B4B",
"H 	c #5C7EB5",
"I 	c #292929",
"J 	c #D1D1D1",
"K 	c #ADADAD",
"L 	c #2E2E2E",
"M 	c #383838",
"N 	c #3A3A3A",
"O 	c #4E4E4E",
"P 	c #5A7CB2",
"Q 	c #424242",
"R 	c #303030",
"S 	c #525252",
"T 	c #587AB0",
"U 	c #474747",
"V 	c #3E3E3E",
"W 	c #404040",
"X 	c #555555",
"Y 	c #5678AD",
"Z 	c #6F97CC",
"` 	c #444444",
" .	c #454545",
"..	c #575757",
"+.	c #5475AC",
"@.	c #6E94CA",
"#.	c #484848",
"$.	c #5A5A5A",
"%.	c #5373AA",
"&.	c #6C92C8",
"*.	c #535353",
"=.	c #545454",
"-.	c #565656",
";.	c #585858",
">.	c #595959",
",.	c #5B5B5B",
"'.	c #5C5C5C",
").	c #5D5D5D",
"!.	c #5172A9",
"~.	c #6D91C3",
"{.	c #688EC3",
"].	c #6488BE",
"^.	c #6185BB",
"/.	c #5F83B9",
"(.	c #5E80B6",
"_.	c #5C7EB4",
":.	c #587BB1",
"<.	c #5779AE",
"[.	c #5676AD",
"}.	c #5475AB",
"|.	c #5373A9",
"1.	c #5171A9",
"2.	c #5170A3",
"                                ",
". + @ # $ % & * = - ; > , ' ) ! ",
"~ { ] ^ ^ ^ ^ ^ ^ / ^ / ^ ( _ : ",
"@ < [ % } | 1 2 ; 3 4 ' 5 6 7 8 ",
"< 9 0 a b c d e f g h i j k l m ",
"n b o p q r s t u v w x y 9 z A ",
"% b o B C r s t u v w x y 9 z D ",
"* f s t E F v w x y 9 0 b c G H ",
"= i I J K L y 9 0 b d e M N O P ",
"2 Q y R 9 a b d d M N g i i S T ",
"; U a b d e f N g h V j W k X Y ",
"Z G M f N h i j j k Q Q `  ...+.",
"@.O i i V j k Q l `  .z z #.$.%.",
"&.S *.=.X -.....;.>.$.,.'.'.).!.",
"~.{.8 ].^./.(._.P :.<.[.}.|.1.2.",
"                                "};
