/* XPM */
static const char * project_test_xpm[] = {
"16 16 68 1",
" 	c None",
".	c #428D3C",
"+	c #4D9446",
"@	c #4A9444",
"#	c #3A8436",
"$	c #3B8536",
"%	c #2B6A26",
"&	c #236022",
"*	c #235E21",
"=	c #489241",
"-	c #398335",
";	c #3B8637",
">	c #33792F",
",	c #408D3B",
"'	c #3C8737",
")	c #3D8A39",
"!	c #367D31",
"~	c #2B6C26",
"{	c #235F22",
"]	c #47923F",
"^	c #3E8C3A",
"/	c #46923F",
"(	c #30722A",
"_	c #276324",
":	c #2F6C2E",
"<	c #0081D9",
"[	c #0059CF",
"}	c #45903E",
"|	c #33782E",
"1	c #347B30",
"2	c #2C6A2A",
"3	c #225A20",
"4	c #286127",
"5	c #245F23",
"6	c #547B61",
"7	c #178FDD",
"8	c #0383D9",
"9	c #007FD9",
"0	c #47A6E4",
"a	c #0B83D9",
"b	c #178DDD",
"c	c #51A8E4",
"d	c #037DD7",
"e	c #19A3E3",
"f	c #007BD7",
"g	c #005BCD",
"h	c #399EE2",
"i	c #50A5E4",
"j	c #0075D7",
"k	c #4DAFE7",
"l	c #038BDB",
"m	c #0073D5",
"n	c #47A2E2",
"o	c #50A4E4",
"p	c #006FD3",
"q	c #007DD9",
"r	c #56ADE8",
"s	c #399CE0",
"t	c #68B1E8",
"u	c #50A1E3",
"v	c #0069D3",
"w	c #1385DB",
"x	c #79B8EA",
"y	c #4E9FE1",
"z	c #0065CF",
"A	c #4296DF",
"B	c #0063CF",
"C	c #0029BD",
"                ",
"                ",
" .+  @#$  %&*   ",
" +=  - ; >      ",
" , ' )!~ {      ",
"]^;/ ( _ :    <[",
"}  | 1&2 345678 ",
"           90a  ",
"          bcd   ",
"   ef   ghij    ",
"    kl mnop     ",
"    qrstuv      ",
"     wxyz       ",
"      AB        ",
"      C         ",
"                "};
